<svg xmlns="http://www.w3.org/2000/svg" viewBox="0 0 48 48" fill="none" aria-hidden="true">
  <path d="M16 22c0-3.3 2.2-6 5-6 1.6 0 3 .7 4 1.8" stroke="#12352F" stroke-width="1.6" stroke-linecap="round"/>
  <path d="M32 22c0-3.3-2.2-6-5-6-1.6 0-3 .7-4 1.8" stroke="#12352F" stroke-width="1.6" stroke-linecap="round"/>
  <path d="M12 34c0-4.4 3.6-7 8-7h2c1.2 2.2 3.2 3.5 5.5 3.5" stroke="#12352F" stroke-width="1.6" stroke-linecap="round"/>
  <path d="M36 34c0-4.4-3.6-7-8-7h-2c-1.2 2.2-3.2 3.5-5.5 3.5" stroke="#12352F" stroke-width="1.6" stroke-linecap="round"/>
  <circle cx="21" cy="16" r="3" stroke="#B99352" stroke-width="1.5"/>
  <circle cx="27" cy="16" r="3" stroke="#B99352" stroke-width="1.5"/>
</svg>
